<svg xmlns="http://www.w3.org/2000/svg" width="52" height="53" viewBox="0 0 52 53" fill="none"><path d="M26 52.5C40.3594 52.5 52 40.8594 52 26.5C52 12.1406 40.3594 0.5 26 0.5C11.6406 0.5 0 12.1406 0 26.5C0 40.8594 11.6406 52.5 26 52.5Z" fill="url(#paint0_linear_110_108)"></path><path d="M17.5996 28.4006L20.6843 36.9386C20.6843 36.9386 21.07 37.7374 21.4829 37.7374C21.8959 37.7374 28.0382 31.3475 28.0382 31.3475L34.8686 18.1547L17.7097 26.1967L17.5996 28.4006Z" fill="#C8DAEA"></path><path d="M21.6897 30.5902L21.0975 36.8835C21.0975 36.8835 20.8497 38.8119 22.7776 36.8835C24.7055 34.9552 26.5508 33.4682 26.5508 33.4682" fill="#A9C6D8"></path><path d="M17.6553 28.7052L11.31 26.6378C11.31 26.6378 10.5517 26.3301 10.7959 25.6325C10.8461 25.4886 10.9475 25.3662 11.2509 25.1558C12.6568 24.1758 37.2738 15.3278 37.2738 15.3278C37.2738 15.3278 37.9689 15.0936 38.3788 15.2494C38.4803 15.2808 38.5715 15.3385 38.6433 15.4167C38.715 15.495 38.7647 15.5909 38.7873 15.6946C38.8316 15.8778 38.8501 16.0663 38.8423 16.2547C38.8403 16.4176 38.8206 16.5686 38.8057 16.8055C38.6557 19.2245 34.169 37.2789 34.169 37.2789C34.169 37.2789 33.9006 38.3354 32.9388 38.3716C32.7024 38.3792 32.4669 38.3392 32.2464 38.2539C32.0258 38.1686 31.8247 38.0397 31.655 37.875C29.7676 36.2515 23.2442 31.8675 21.8028 30.9033C21.7703 30.8812 21.7429 30.8523 21.7225 30.8186C21.7021 30.785 21.6891 30.7474 21.6845 30.7083C21.6643 30.6067 21.7748 30.4808 21.7748 30.4808C21.7748 30.4808 33.1338 20.3841 33.436 19.3242C33.4594 19.2421 33.371 19.2016 33.2523 19.2375C32.4979 19.5151 19.4194 27.7742 17.976 28.6857C17.8721 28.7172 17.7623 28.7238 17.6553 28.7052Z" fill="white"></path><defs><linearGradient id="paint0_linear_110_108" x1="26" y1="52.5" x2="26" y2="0.5" gradientUnits="userSpaceOnUse"><stop stop-color="#1D93D2"></stop><stop offset="1" stop-color="#38B0E3"></stop></linearGradient></defs></svg>